<mxfile host="app.diagrams.net" modified="2020-08-10T07:40:00.576Z" agent="5.0 (Macintosh; Intel Mac OS X 10_15_6) AppleWebKit/537.36 (KHTML, like Gecko) Chrome/84.0.4147.105 Safari/537.36" etag="M3G7Lu52Pkt0j74KNooR" version="13.6.2" type="github">
  <diagram id="Qr4Pnv2m3WBkt8ojGs1L" name="Page-1">
    <mxGraphModel dx="1613" dy="423" grid="1" gridSize="10" guides="1" tooltips="1" connect="1" arrows="1" fold="1" page="1" pageScale="1" pageWidth="827" pageHeight="1169" math="0" shadow="0">
      <root>
        <mxCell id="0" />
        <mxCell id="1" parent="0" />
        <mxCell id="PXbeC9ojXizBLTdeUPve-1" style="edgeStyle=orthogonalEdgeStyle;rounded=0;orthogonalLoop=1;jettySize=auto;html=1;exitX=0;exitY=0;exitDx=0;exitDy=0;entryX=1.028;entryY=0.579;entryDx=0;entryDy=0;entryPerimeter=0;fontSize=14;fontColor=#000000;fillColor=#f5f5f5;labelBackgroundColor=#E6E6E6;strokeColor=none;" edge="1" parent="1" source="PXbeC9ojXizBLTdeUPve-23" target="PXbeC9ojXizBLTdeUPve-48">
          <mxGeometry relative="1" as="geometry" />
        </mxCell>
        <mxCell id="PXbeC9ojXizBLTdeUPve-2" style="edgeStyle=orthogonalEdgeStyle;rounded=0;orthogonalLoop=1;jettySize=auto;html=1;exitX=0;exitY=0.25;exitDx=0;exitDy=0;entryX=1;entryY=0.75;entryDx=0;entryDy=0;fontSize=14;fontColor=#000000;fillColor=#f5f5f5;labelBackgroundColor=#E6E6E6;strokeColor=none;" edge="1" parent="1" source="PXbeC9ojXizBLTdeUPve-23" target="PXbeC9ojXizBLTdeUPve-35">
          <mxGeometry relative="1" as="geometry" />
        </mxCell>
        <mxCell id="PXbeC9ojXizBLTdeUPve-3" style="edgeStyle=orthogonalEdgeStyle;rounded=0;orthogonalLoop=1;jettySize=auto;html=1;exitX=0;exitY=0.5;exitDx=0;exitDy=0;entryX=1;entryY=0.5;entryDx=0;entryDy=0;fontSize=14;fontColor=#000000;fontStyle=1;fillColor=#f5f5f5;labelBackgroundColor=#E6E6E6;strokeColor=none;" edge="1" parent="1" source="PXbeC9ojXizBLTdeUPve-23" target="PXbeC9ojXizBLTdeUPve-34">
          <mxGeometry relative="1" as="geometry" />
        </mxCell>
        <mxCell id="PXbeC9ojXizBLTdeUPve-4" style="edgeStyle=orthogonalEdgeStyle;rounded=0;orthogonalLoop=1;jettySize=auto;html=1;exitX=0;exitY=0.75;exitDx=0;exitDy=0;entryX=1;entryY=0.5;entryDx=0;entryDy=0;fontSize=14;fontColor=#000000;fontStyle=1;fillColor=#f5f5f5;labelBackgroundColor=#E6E6E6;strokeColor=none;" edge="1" parent="1" source="PXbeC9ojXizBLTdeUPve-23" target="PXbeC9ojXizBLTdeUPve-33">
          <mxGeometry relative="1" as="geometry" />
        </mxCell>
        <mxCell id="PXbeC9ojXizBLTdeUPve-5" style="edgeStyle=orthogonalEdgeStyle;rounded=0;orthogonalLoop=1;jettySize=auto;html=1;exitX=0;exitY=1;exitDx=0;exitDy=0;entryX=1;entryY=0.5;entryDx=0;entryDy=0;fontSize=14;fontColor=#000000;fontStyle=1;fillColor=#f5f5f5;labelBackgroundColor=#E6E6E6;strokeColor=none;" edge="1" parent="1" source="PXbeC9ojXizBLTdeUPve-23" target="PXbeC9ojXizBLTdeUPve-32">
          <mxGeometry relative="1" as="geometry" />
        </mxCell>
        <mxCell id="PXbeC9ojXizBLTdeUPve-6" style="edgeStyle=orthogonalEdgeStyle;rounded=0;orthogonalLoop=1;jettySize=auto;html=1;exitX=0.5;exitY=1;exitDx=0;exitDy=0;entryX=0.536;entryY=-0.207;entryDx=0;entryDy=0;entryPerimeter=0;fontSize=14;fontColor=#000000;fontStyle=1;fillColor=#f5f5f5;labelBackgroundColor=#E6E6E6;strokeColor=none;" edge="1" parent="1" source="PXbeC9ojXizBLTdeUPve-23" target="PXbeC9ojXizBLTdeUPve-47">
          <mxGeometry relative="1" as="geometry" />
        </mxCell>
        <mxCell id="PXbeC9ojXizBLTdeUPve-7" style="edgeStyle=orthogonalEdgeStyle;rounded=0;orthogonalLoop=1;jettySize=auto;html=1;exitX=1;exitY=0;exitDx=0;exitDy=0;entryX=0;entryY=0.25;entryDx=0;entryDy=0;fontSize=14;fontColor=#000000;fillColor=#f5f5f5;labelBackgroundColor=#E6E6E6;strokeColor=none;" edge="1" parent="1" source="PXbeC9ojXizBLTdeUPve-23" target="PXbeC9ojXizBLTdeUPve-31">
          <mxGeometry relative="1" as="geometry" />
        </mxCell>
        <mxCell id="PXbeC9ojXizBLTdeUPve-8" style="edgeStyle=orthogonalEdgeStyle;rounded=0;orthogonalLoop=1;jettySize=auto;html=1;exitX=1;exitY=0.25;exitDx=0;exitDy=0;entryX=0;entryY=0.5;entryDx=0;entryDy=0;fontSize=14;fontColor=#000000;fillColor=#f5f5f5;labelBackgroundColor=#E6E6E6;strokeColor=none;" edge="1" parent="1" source="PXbeC9ojXizBLTdeUPve-23" target="PXbeC9ojXizBLTdeUPve-30">
          <mxGeometry relative="1" as="geometry" />
        </mxCell>
        <mxCell id="PXbeC9ojXizBLTdeUPve-9" style="edgeStyle=orthogonalEdgeStyle;rounded=0;orthogonalLoop=1;jettySize=auto;html=1;exitX=1;exitY=0.5;exitDx=0;exitDy=0;entryX=0;entryY=0.5;entryDx=0;entryDy=0;fontSize=14;fontColor=#000000;fillColor=#f5f5f5;labelBackgroundColor=#E6E6E6;strokeColor=none;" edge="1" parent="1" source="PXbeC9ojXizBLTdeUPve-23" target="PXbeC9ojXizBLTdeUPve-29">
          <mxGeometry relative="1" as="geometry" />
        </mxCell>
        <mxCell id="PXbeC9ojXizBLTdeUPve-10" style="edgeStyle=orthogonalEdgeStyle;rounded=0;orthogonalLoop=1;jettySize=auto;html=1;exitX=1;exitY=0.75;exitDx=0;exitDy=0;entryX=0;entryY=0.5;entryDx=0;entryDy=0;fontSize=14;fontColor=#000000;fillColor=#f5f5f5;labelBackgroundColor=#E6E6E6;strokeColor=none;" edge="1" parent="1" source="PXbeC9ojXizBLTdeUPve-23" target="PXbeC9ojXizBLTdeUPve-28">
          <mxGeometry relative="1" as="geometry" />
        </mxCell>
        <mxCell id="PXbeC9ojXizBLTdeUPve-11" style="edgeStyle=orthogonalEdgeStyle;rounded=0;orthogonalLoop=1;jettySize=auto;html=1;exitX=1;exitY=1;exitDx=0;exitDy=0;entryX=0;entryY=0.25;entryDx=0;entryDy=0;fontSize=14;fontColor=#000000;fillColor=#f5f5f5;labelBackgroundColor=#E6E6E6;strokeColor=none;" edge="1" parent="1" source="PXbeC9ojXizBLTdeUPve-23" target="PXbeC9ojXizBLTdeUPve-27">
          <mxGeometry relative="1" as="geometry" />
        </mxCell>
        <mxCell id="PXbeC9ojXizBLTdeUPve-12" style="edgeStyle=orthogonalEdgeStyle;rounded=0;orthogonalLoop=1;jettySize=auto;html=1;exitX=0;exitY=0;exitDx=0;exitDy=0;entryX=1.002;entryY=0.293;entryDx=0;entryDy=0;entryPerimeter=0;labelBackgroundColor=#E6E6E6;fontSize=14;fontColor=#000000;" edge="1" parent="1" source="PXbeC9ojXizBLTdeUPve-23" target="PXbeC9ojXizBLTdeUPve-48">
          <mxGeometry relative="1" as="geometry" />
        </mxCell>
        <mxCell id="PXbeC9ojXizBLTdeUPve-13" style="edgeStyle=orthogonalEdgeStyle;rounded=0;orthogonalLoop=1;jettySize=auto;html=1;exitX=0;exitY=0.25;exitDx=0;exitDy=0;entryX=1;entryY=0.5;entryDx=0;entryDy=0;labelBackgroundColor=#E6E6E6;fontSize=14;fontColor=#000000;" edge="1" parent="1" source="PXbeC9ojXizBLTdeUPve-23" target="PXbeC9ojXizBLTdeUPve-35">
          <mxGeometry relative="1" as="geometry" />
        </mxCell>
        <mxCell id="PXbeC9ojXizBLTdeUPve-14" style="edgeStyle=orthogonalEdgeStyle;rounded=0;orthogonalLoop=1;jettySize=auto;html=1;exitX=0;exitY=0.5;exitDx=0;exitDy=0;entryX=1;entryY=0.5;entryDx=0;entryDy=0;labelBackgroundColor=#E6E6E6;fontSize=14;fontColor=#000000;" edge="1" parent="1" source="PXbeC9ojXizBLTdeUPve-23" target="PXbeC9ojXizBLTdeUPve-34">
          <mxGeometry relative="1" as="geometry" />
        </mxCell>
        <mxCell id="PXbeC9ojXizBLTdeUPve-15" style="edgeStyle=orthogonalEdgeStyle;rounded=0;orthogonalLoop=1;jettySize=auto;html=1;exitX=0;exitY=0.75;exitDx=0;exitDy=0;entryX=1;entryY=0.5;entryDx=0;entryDy=0;labelBackgroundColor=#E6E6E6;fontSize=14;fontColor=#000000;" edge="1" parent="1" source="PXbeC9ojXizBLTdeUPve-23" target="PXbeC9ojXizBLTdeUPve-33">
          <mxGeometry relative="1" as="geometry" />
        </mxCell>
        <mxCell id="PXbeC9ojXizBLTdeUPve-16" style="edgeStyle=orthogonalEdgeStyle;rounded=0;orthogonalLoop=1;jettySize=auto;html=1;exitX=0;exitY=1;exitDx=0;exitDy=0;entryX=1;entryY=0.5;entryDx=0;entryDy=0;labelBackgroundColor=#E6E6E6;fontSize=14;fontColor=#000000;" edge="1" parent="1" source="PXbeC9ojXizBLTdeUPve-23" target="PXbeC9ojXizBLTdeUPve-32">
          <mxGeometry relative="1" as="geometry" />
        </mxCell>
        <mxCell id="PXbeC9ojXizBLTdeUPve-17" style="edgeStyle=orthogonalEdgeStyle;rounded=0;orthogonalLoop=1;jettySize=auto;html=1;exitX=0.5;exitY=1;exitDx=0;exitDy=0;entryX=0.5;entryY=0;entryDx=0;entryDy=0;labelBackgroundColor=#E6E6E6;fontSize=14;fontColor=#000000;" edge="1" parent="1" source="PXbeC9ojXizBLTdeUPve-23" target="PXbeC9ojXizBLTdeUPve-26">
          <mxGeometry relative="1" as="geometry" />
        </mxCell>
        <mxCell id="PXbeC9ojXizBLTdeUPve-18" style="edgeStyle=orthogonalEdgeStyle;rounded=0;orthogonalLoop=1;jettySize=auto;html=1;exitX=1;exitY=0;exitDx=0;exitDy=0;entryX=0;entryY=0.5;entryDx=0;entryDy=0;labelBackgroundColor=#E6E6E6;fontSize=14;fontColor=#000000;" edge="1" parent="1" source="PXbeC9ojXizBLTdeUPve-23" target="PXbeC9ojXizBLTdeUPve-31">
          <mxGeometry relative="1" as="geometry" />
        </mxCell>
        <mxCell id="PXbeC9ojXizBLTdeUPve-19" style="edgeStyle=orthogonalEdgeStyle;rounded=0;orthogonalLoop=1;jettySize=auto;html=1;exitX=1;exitY=0.25;exitDx=0;exitDy=0;entryX=0;entryY=0.5;entryDx=0;entryDy=0;labelBackgroundColor=#E6E6E6;fontSize=14;fontColor=#000000;" edge="1" parent="1" source="PXbeC9ojXizBLTdeUPve-23" target="PXbeC9ojXizBLTdeUPve-30">
          <mxGeometry relative="1" as="geometry" />
        </mxCell>
        <mxCell id="PXbeC9ojXizBLTdeUPve-20" style="edgeStyle=orthogonalEdgeStyle;rounded=0;orthogonalLoop=1;jettySize=auto;html=1;exitX=1;exitY=0.5;exitDx=0;exitDy=0;labelBackgroundColor=#E6E6E6;fontSize=14;fontColor=#000000;" edge="1" parent="1" source="PXbeC9ojXizBLTdeUPve-23" target="PXbeC9ojXizBLTdeUPve-29">
          <mxGeometry relative="1" as="geometry" />
        </mxCell>
        <mxCell id="PXbeC9ojXizBLTdeUPve-21" style="edgeStyle=orthogonalEdgeStyle;rounded=0;orthogonalLoop=1;jettySize=auto;html=1;exitX=1;exitY=0.75;exitDx=0;exitDy=0;entryX=0;entryY=0.5;entryDx=0;entryDy=0;labelBackgroundColor=#E6E6E6;fontSize=14;fontColor=#000000;" edge="1" parent="1" source="PXbeC9ojXizBLTdeUPve-23" target="PXbeC9ojXizBLTdeUPve-28">
          <mxGeometry relative="1" as="geometry">
            <Array as="points">
              <mxPoint x="270" y="400" />
              <mxPoint x="270" y="438" />
            </Array>
          </mxGeometry>
        </mxCell>
        <mxCell id="PXbeC9ojXizBLTdeUPve-22" style="edgeStyle=orthogonalEdgeStyle;rounded=0;orthogonalLoop=1;jettySize=auto;html=1;exitX=1;exitY=1;exitDx=0;exitDy=0;entryX=0;entryY=0.5;entryDx=0;entryDy=0;labelBackgroundColor=#E6E6E6;fontSize=14;fontColor=#000000;" edge="1" parent="1" source="PXbeC9ojXizBLTdeUPve-23" target="PXbeC9ojXizBLTdeUPve-27">
          <mxGeometry relative="1" as="geometry" />
        </mxCell>
        <mxCell id="PXbeC9ojXizBLTdeUPve-23" value="" style="rounded=0;whiteSpace=wrap;html=1;labelBackgroundColor=#E6E6E6;strokeWidth=3;fontSize=14;align=center;fillColor=#f5f5f5;fontColor=#333333;strokeColor=none;" vertex="1" parent="1">
          <mxGeometry x="120" y="355" width="120" height="60" as="geometry" />
        </mxCell>
        <mxCell id="PXbeC9ojXizBLTdeUPve-24" style="edgeStyle=orthogonalEdgeStyle;rounded=0;orthogonalLoop=1;jettySize=auto;html=1;exitX=0.25;exitY=1;exitDx=0;exitDy=0;fontSize=14;fontColor=#000000;fontStyle=1" edge="1" parent="1" source="PXbeC9ojXizBLTdeUPve-26" target="PXbeC9ojXizBLTdeUPve-55">
          <mxGeometry relative="1" as="geometry" />
        </mxCell>
        <mxCell id="PXbeC9ojXizBLTdeUPve-25" style="edgeStyle=orthogonalEdgeStyle;rounded=0;orthogonalLoop=1;jettySize=auto;html=1;exitX=0.75;exitY=1;exitDx=0;exitDy=0;entryX=0.5;entryY=0;entryDx=0;entryDy=0;labelBackgroundColor=#E6E6E6;fontSize=14;fontColor=#000000;" edge="1" parent="1" source="PXbeC9ojXizBLTdeUPve-26" target="PXbeC9ojXizBLTdeUPve-58">
          <mxGeometry relative="1" as="geometry" />
        </mxCell>
        <mxCell id="PXbeC9ojXizBLTdeUPve-26" value="" style="whiteSpace=wrap;html=1;labelBackgroundColor=#E6E6E6;strokeWidth=3;fontSize=14;fontStyle=1;fillColor=#f5f5f5;fontColor=#333333;strokeColor=none;" vertex="1" parent="1">
          <mxGeometry x="58" y="501" width="230" height="30" as="geometry" />
        </mxCell>
        <mxCell id="PXbeC9ojXizBLTdeUPve-27" value="" style="whiteSpace=wrap;html=1;labelBackgroundColor=#E6E6E6;strokeWidth=3;fontSize=14;fontStyle=1;fillColor=#f5f5f5;fontColor=#333333;strokeColor=none;" vertex="1" parent="1">
          <mxGeometry x="340" y="473" width="230" height="30" as="geometry" />
        </mxCell>
        <mxCell id="PXbeC9ojXizBLTdeUPve-28" value="" style="whiteSpace=wrap;html=1;labelBackgroundColor=#E6E6E6;strokeWidth=3;fontSize=14;fontStyle=1;fillColor=#f5f5f5;fontColor=#333333;strokeColor=none;" vertex="1" parent="1">
          <mxGeometry x="340" y="423" width="230" height="30" as="geometry" />
        </mxCell>
        <mxCell id="PXbeC9ojXizBLTdeUPve-29" value="" style="whiteSpace=wrap;html=1;labelBackgroundColor=#E6E6E6;strokeWidth=3;fontSize=14;align=center;fontStyle=1;fillColor=#f5f5f5;fontColor=#333333;strokeColor=none;" vertex="1" parent="1">
          <mxGeometry x="340" y="383" width="230" height="30" as="geometry" />
        </mxCell>
        <mxCell id="PXbeC9ojXizBLTdeUPve-30" value="" style="whiteSpace=wrap;html=1;labelBackgroundColor=#E6E6E6;strokeWidth=3;fontSize=14;fontStyle=1;fillColor=#f5f5f5;fontColor=#333333;strokeColor=none;" vertex="1" parent="1">
          <mxGeometry x="341" y="343" width="230" height="30" as="geometry" />
        </mxCell>
        <mxCell id="PXbeC9ojXizBLTdeUPve-31" value="" style="whiteSpace=wrap;html=1;labelBackgroundColor=#E6E6E6;strokeWidth=3;fontSize=14;fontStyle=1;fillColor=#f5f5f5;fontColor=#333333;strokeColor=none;" vertex="1" parent="1">
          <mxGeometry x="340" y="300" width="230" height="30" as="geometry" />
        </mxCell>
        <mxCell id="PXbeC9ojXizBLTdeUPve-32" value="" style="whiteSpace=wrap;html=1;labelBackgroundColor=#E6E6E6;strokeWidth=3;fontSize=14;fontStyle=1;fillColor=#f5f5f5;fontColor=#333333;strokeColor=none;" vertex="1" parent="1">
          <mxGeometry x="-190" y="470" width="230" height="30" as="geometry" />
        </mxCell>
        <mxCell id="PXbeC9ojXizBLTdeUPve-33" value="" style="whiteSpace=wrap;html=1;labelBackgroundColor=#E6E6E6;strokeWidth=3;fontSize=14;fontStyle=1;fillColor=#f5f5f5;fontColor=#333333;strokeColor=none;" vertex="1" parent="1">
          <mxGeometry x="-189" y="422" width="230" height="30" as="geometry" />
        </mxCell>
        <mxCell id="PXbeC9ojXizBLTdeUPve-34" value="" style="whiteSpace=wrap;html=1;labelBackgroundColor=#E6E6E6;strokeWidth=3;fontSize=14;fontStyle=1;fillColor=#f5f5f5;fontColor=#333333;strokeColor=none;" vertex="1" parent="1">
          <mxGeometry x="-190" y="379" width="230" height="30" as="geometry" />
        </mxCell>
        <mxCell id="PXbeC9ojXizBLTdeUPve-35" value="" style="whiteSpace=wrap;html=1;labelBackgroundColor=#E6E6E6;strokeWidth=3;fontSize=14;fillColor=#f5f5f5;fontColor=#333333;strokeColor=none;" vertex="1" parent="1">
          <mxGeometry x="-188" y="339" width="230" height="30" as="geometry" />
        </mxCell>
        <mxCell id="PXbeC9ojXizBLTdeUPve-36" value="" style="whiteSpace=wrap;html=1;labelBackgroundColor=#E6E6E6;strokeWidth=3;fontSize=14;fillColor=#f5f5f5;fontColor=#333333;strokeColor=none;" vertex="1" parent="1">
          <mxGeometry x="-189" y="300" width="230" height="30" as="geometry" />
        </mxCell>
        <mxCell id="PXbeC9ojXizBLTdeUPve-37" style="edgeStyle=orthogonalEdgeStyle;rounded=0;orthogonalLoop=1;jettySize=auto;html=1;exitX=0.5;exitY=1;exitDx=0;exitDy=0;entryX=0.5;entryY=0;entryDx=0;entryDy=0;fontSize=14;fontColor=#000000;fillColor=#fff2cc;strokeColor=none;labelBackgroundColor=#FFF2CC;" edge="1" parent="1" source="PXbeC9ojXizBLTdeUPve-38" target="PXbeC9ojXizBLTdeUPve-23">
          <mxGeometry relative="1" as="geometry" />
        </mxCell>
        <mxCell id="PXbeC9ojXizBLTdeUPve-38" value="" style="rounded=0;whiteSpace=wrap;html=1;labelBackgroundColor=#ffffff;strokeWidth=3;fontSize=14;fillColor=#dae8fc;strokeColor=none;" vertex="1" parent="1">
          <mxGeometry x="96" y="231" width="160" height="50" as="geometry" />
        </mxCell>
        <mxCell id="PXbeC9ojXizBLTdeUPve-39" style="edgeStyle=orthogonalEdgeStyle;rounded=0;orthogonalLoop=1;jettySize=auto;html=1;exitX=0.5;exitY=1;exitDx=0;exitDy=0;entryX=0.5;entryY=0;entryDx=0;entryDy=0;fontSize=14;fontColor=#000000;" edge="1" parent="1" source="PXbeC9ojXizBLTdeUPve-40" target="PXbeC9ojXizBLTdeUPve-38">
          <mxGeometry relative="1" as="geometry" />
        </mxCell>
        <mxCell id="PXbeC9ojXizBLTdeUPve-40" value="" style="rounded=0;whiteSpace=wrap;html=1;labelBackgroundColor=#FF6666;strokeWidth=3;fontSize=14;fillColor=#f8cecc;strokeColor=#b85450;" vertex="1" parent="1">
          <mxGeometry x="120" y="130" width="120" height="60" as="geometry" />
        </mxCell>
        <mxCell id="PXbeC9ojXizBLTdeUPve-41" value="Nsbject" style="text;html=1;strokeColor=none;fillColor=none;align=center;verticalAlign=middle;whiteSpace=wrap;rounded=0;fontSize=22;fontStyle=1;labelBackgroundColor=#FFCCCC;" vertex="1" parent="1">
          <mxGeometry x="160" y="150" width="40" height="20" as="geometry" />
        </mxCell>
        <mxCell id="PXbeC9ojXizBLTdeUPve-42" value="&lt;p class=&quot;p1&quot; style=&quot;margin: 0px; font-stretch: normal; line-height: normal; font-family: menlo; font-size: 20px;&quot;&gt;&lt;span style=&quot;font-size: 20px;&quot;&gt;UIResponder&lt;/span&gt;&lt;/p&gt;" style="text;html=1;strokeColor=none;fillColor=none;align=center;verticalAlign=middle;whiteSpace=wrap;rounded=0;fontSize=20;fontStyle=1;labelBackgroundColor=#CCE5FF;" vertex="1" parent="1">
          <mxGeometry x="160" y="247" width="40" height="20" as="geometry" />
        </mxCell>
        <mxCell id="PXbeC9ojXizBLTdeUPve-43" value="&lt;p class=&quot;p1&quot; style=&quot;margin: 0px ; font-stretch: normal ; line-height: normal ; font-family: &amp;quot;menlo&amp;quot; ; font-size: 18px&quot;&gt;UIView&lt;/p&gt;" style="text;html=1;align=center;verticalAlign=middle;resizable=0;points=[];autosize=1;labelBackgroundColor=#E6E6E6;fontSize=18;fontStyle=1;strokeWidth=15;fillColor=#f5f5f5;fontColor=#333333;" vertex="1" parent="1">
          <mxGeometry x="139" y="370" width="80" height="30" as="geometry" />
        </mxCell>
        <mxCell id="PXbeC9ojXizBLTdeUPve-44" value="&lt;span style=&quot;font-family: &amp;quot;menlo&amp;quot; ; font-size: 14px&quot;&gt;UITableViewCell&lt;br style=&quot;font-size: 14px&quot;&gt;&lt;/span&gt;" style="text;html=1;align=center;verticalAlign=middle;resizable=0;points=[];autosize=1;labelBackgroundColor=#E6E6E6;fontSize=14;strokeWidth=15;fontStyle=1;fillColor=#f5f5f5;fontColor=#333333;" vertex="1" parent="1">
          <mxGeometry x="-165" y="425" width="140" height="20" as="geometry" />
        </mxCell>
        <mxCell id="PXbeC9ojXizBLTdeUPve-45" value="&lt;span style=&quot;font-family: &amp;quot;menlo&amp;quot; ; font-size: 14px&quot;&gt;UIPickerView&lt;br style=&quot;font-size: 14px&quot;&gt;&lt;/span&gt;" style="text;html=1;align=center;verticalAlign=middle;resizable=0;points=[];autosize=1;labelBackgroundColor=#E6E6E6;fontSize=14;strokeWidth=15;fontStyle=1;fillColor=#f5f5f5;fontColor=#333333;" vertex="1" parent="1">
          <mxGeometry x="396" y="388" width="120" height="20" as="geometry" />
        </mxCell>
        <mxCell id="PXbeC9ojXizBLTdeUPve-46" value="&lt;p class=&quot;p1&quot; style=&quot;margin: 0px ; font-stretch: normal ; line-height: normal ; font-family: &amp;quot;menlo&amp;quot;&quot;&gt;&lt;span style=&quot;&quot;&gt;&lt;font style=&quot;font-size: 14px&quot;&gt;UIStackView&lt;/font&gt;&lt;/span&gt;&lt;/p&gt;" style="text;html=1;align=center;verticalAlign=middle;resizable=0;points=[];autosize=1;labelBackgroundColor=#E6E6E6;fontSize=14;strokeWidth=15;fontStyle=1;fillColor=#f5f5f5;fontColor=#333333;" vertex="1" parent="1">
          <mxGeometry x="401" y="349" width="110" height="20" as="geometry" />
        </mxCell>
        <mxCell id="PXbeC9ojXizBLTdeUPve-47" value="&lt;span style=&quot;font-family: &amp;quot;menlo&amp;quot; ; font-size: 14px&quot;&gt;UIScrollView&lt;br style=&quot;font-size: 14px&quot;&gt;&lt;/span&gt;" style="text;html=1;align=center;verticalAlign=middle;resizable=0;points=[];autosize=1;labelBackgroundColor=#E6E6E6;fontSize=14;strokeWidth=15;fontStyle=1;fillColor=#f5f5f5;fontColor=#333333;" vertex="1" parent="1">
          <mxGeometry x="120" y="503" width="120" height="20" as="geometry" />
        </mxCell>
        <mxCell id="PXbeC9ojXizBLTdeUPve-48" value="&lt;span style=&quot;font-family: &amp;quot;menlo&amp;quot; ; font-size: 14px&quot;&gt;&lt;b&gt;UICollectionReusableView&lt;/b&gt;&lt;br style=&quot;font-size: 14px&quot;&gt;&lt;/span&gt;" style="text;html=1;align=center;verticalAlign=middle;resizable=0;points=[];autosize=1;labelBackgroundColor=#E6E6E6;fontSize=14;strokeWidth=15;fillColor=#f5f5f5;fontColor=#333333;" vertex="1" parent="1">
          <mxGeometry x="-179" y="303" width="220" height="20" as="geometry" />
        </mxCell>
        <mxCell id="PXbeC9ojXizBLTdeUPve-49" value="&lt;span style=&quot;font-family: &amp;quot;menlo&amp;quot; ; font-size: 14px&quot;&gt;UIImageView&lt;br style=&quot;font-size: 14px&quot;&gt;&lt;/span&gt;" style="text;html=1;align=center;verticalAlign=middle;resizable=0;points=[];autosize=1;labelBackgroundColor=#E6E6E6;fontSize=14;strokeWidth=15;fontStyle=1;fillColor=#f5f5f5;fontColor=#333333;" vertex="1" parent="1">
          <mxGeometry x="401" y="305" width="110" height="20" as="geometry" />
        </mxCell>
        <mxCell id="PXbeC9ojXizBLTdeUPve-50" value="&lt;meta charset=&quot;utf-8&quot; style=&quot;font-size: 14px;&quot;&gt;&lt;span style=&quot;font-family: menlo; font-size: 14px; font-style: normal; letter-spacing: normal; text-align: center; text-indent: 0px; text-transform: none; word-spacing: 0px; display: inline; float: none;&quot;&gt;UITabBar&lt;/span&gt;" style="text;whiteSpace=wrap;html=1;labelBackgroundColor=#E6E6E6;fontSize=14;strokeWidth=15;fontStyle=1;fillColor=#f5f5f5;fontColor=#333333;" vertex="1" parent="1">
          <mxGeometry x="416" y="423" width="80" height="30" as="geometry" />
        </mxCell>
        <mxCell id="PXbeC9ojXizBLTdeUPve-51" value="&lt;meta charset=&quot;utf-8&quot; style=&quot;font-size: 14px;&quot;&gt;&lt;span style=&quot;font-family: menlo; font-size: 14px; font-style: normal; letter-spacing: normal; text-align: center; text-indent: 0px; text-transform: none; word-spacing: 0px; display: inline; float: none;&quot;&gt;UIVisualEffectView&lt;/span&gt;" style="text;whiteSpace=wrap;html=1;labelBackgroundColor=#E6E6E6;fontSize=14;strokeWidth=15;fontStyle=1;fillColor=#f5f5f5;fontColor=#333333;" vertex="1" parent="1">
          <mxGeometry x="-162" y="471" width="160" height="30" as="geometry" />
        </mxCell>
        <mxCell id="PXbeC9ojXizBLTdeUPve-52" value="&lt;p class=&quot;p1&quot; style=&quot;margin: 0px ; font-stretch: normal ; line-height: normal ; font-family: &amp;quot;menlo&amp;quot;&quot;&gt;&lt;span style=&quot;&quot;&gt;&lt;font style=&quot;font-size: 14px&quot;&gt;UICollectionViewCell&lt;/font&gt;&lt;/span&gt;&lt;/p&gt;" style="text;whiteSpace=wrap;html=1;labelBackgroundColor=#E6E6E6;fontSize=14;strokeWidth=15;fontStyle=1;fillColor=#f5f5f5;fontColor=#333333;" vertex="1" parent="1">
          <mxGeometry x="380" y="471" width="110" height="30" as="geometry" />
        </mxCell>
        <mxCell id="PXbeC9ojXizBLTdeUPve-53" value="&lt;meta charset=&quot;utf-8&quot; style=&quot;font-size: 14px;&quot;&gt;&lt;span style=&quot;font-family: menlo; font-size: 14px; font-style: normal; letter-spacing: normal; text-align: center; text-indent: 0px; text-transform: none; word-spacing: 0px; display: inline; float: none;&quot;&gt;UIAlertView&lt;/span&gt;" style="text;whiteSpace=wrap;html=1;labelBackgroundColor=#E6E6E6;fontSize=14;strokeWidth=15;fontStyle=1;fillColor=#f5f5f5;fontColor=#333333;" vertex="1" parent="1">
          <mxGeometry x="-161" y="379" width="100" height="30" as="geometry" />
        </mxCell>
        <mxCell id="PXbeC9ojXizBLTdeUPve-54" value="&lt;span style=&quot;font-family: &amp;quot;menlo&amp;quot; ; font-size: 14px ; font-style: normal ; letter-spacing: normal ; text-align: center ; text-indent: 0px ; text-transform: none ; word-spacing: 0px ; display: inline ; float: none&quot;&gt;&lt;b&gt;UIWindow&lt;/b&gt;&lt;/span&gt;" style="text;whiteSpace=wrap;html=1;labelBackgroundColor=#E6E6E6;fontSize=14;strokeWidth=15;fillColor=#f5f5f5;fontColor=#333333;" vertex="1" parent="1">
          <mxGeometry x="-169" y="339" width="80" height="30" as="geometry" />
        </mxCell>
        <mxCell id="PXbeC9ojXizBLTdeUPve-55" value="&lt;meta charset=&quot;utf-8&quot; style=&quot;font-size: 14px;&quot;&gt;&lt;span style=&quot;color: rgb(0, 0, 0); font-family: helvetica; font-size: 14px; font-style: normal; letter-spacing: normal; text-align: left; text-indent: 0px; text-transform: none; word-spacing: 0px; background-color: rgb(248, 249, 250); display: inline; float: none;&quot;&gt;UICollectionView&lt;/span&gt;" style="text;whiteSpace=wrap;html=1;fontSize=14;strokeWidth=15;perimeterSpacing=10;fontStyle=1" vertex="1" parent="1">
          <mxGeometry y="590" width="120" height="30" as="geometry" />
        </mxCell>
        <mxCell id="PXbeC9ojXizBLTdeUPve-56" value="&lt;meta charset=&quot;utf-8&quot; style=&quot;font-size: 14px;&quot;&gt;&lt;span style=&quot;color: rgb(0, 0, 0); font-family: helvetica; font-size: 14px; font-style: normal; letter-spacing: normal; text-align: left; text-indent: 0px; text-transform: none; word-spacing: 0px; background-color: rgb(248, 249, 250); display: inline; float: none;&quot;&gt;UITableView&lt;/span&gt;" style="text;whiteSpace=wrap;html=1;fontSize=14;strokeWidth=15;fontStyle=1" vertex="1" parent="1">
          <mxGeometry x="231" y="592" width="90" height="30" as="geometry" />
        </mxCell>
        <mxCell id="PXbeC9ojXizBLTdeUPve-57" value="" style="rounded=1;whiteSpace=wrap;html=1;labelBackgroundColor=#FFCCCC;strokeWidth=3;fillColor=none;gradientColor=none;fontSize=14;fontColor=#000000;align=center;" vertex="1" parent="1">
          <mxGeometry x="-6" y="582" width="130" height="43" as="geometry" />
        </mxCell>
        <mxCell id="PXbeC9ojXizBLTdeUPve-58" value="" style="rounded=1;whiteSpace=wrap;html=1;labelBackgroundColor=#FFCCCC;strokeWidth=3;fillColor=none;gradientColor=none;fontSize=14;fontColor=#000000;align=center;" vertex="1" parent="1">
          <mxGeometry x="201" y="584" width="130" height="43" as="geometry" />
        </mxCell>
      </root>
    </mxGraphModel>
  </diagram>
</mxfile>
